<?xml version="1.0" encoding="UTF-8"?>
<svg xmlns="http://www.w3.org/2000/svg" width="184" height="77" viewBox="0 0 184 77" fill="none">
  <g clip-path="url(#clip0_3448_11221)">
    <path d="M0.12915 23.3896L3.29514 21.5805C3.87664 22.8727 4.84582 23.7773 6.65496 23.7773C8.39948 23.7773 8.78716 23.0665 8.78716 22.485C8.78716 21.5158 7.88259 21.1282 5.49194 20.482C3.1013 19.8359 0.839881 18.6729 0.839881 15.6361C0.839881 12.5994 3.42436 10.7903 6.20268 10.7903C8.78716 10.7903 10.8547 12.0179 12.0178 14.4085L8.85177 16.153C8.33487 14.99 7.55953 14.3439 6.07345 14.3439C4.91044 14.3439 4.39354 14.9254 4.39354 15.5715C4.39354 16.2823 4.78121 16.7992 7.23647 17.5745C9.62711 18.2852 12.3408 19.1252 12.3408 22.485C12.3408 25.5218 9.88556 27.3955 6.46112 27.3955C3.1013 27.3309 0.969106 25.7156 0.12915 23.3896Z" fill="#0D0B23">
    </path>
    <path d="M25.9094 21.322C25.9094 24.6819 23.4542 27.331 20.482 27.331C18.9313 27.331 17.8329 26.8141 17.1222 25.9741V31.5954H13.6978V15.6362H17.1222V16.7346C17.8975 15.8946 18.9959 15.3777 20.482 15.3777C23.4542 15.3131 25.9094 17.8976 25.9094 21.322ZM22.5496 21.322C22.5496 19.6421 21.3866 18.5437 19.8359 18.5437C18.2852 18.5437 17.1222 19.6421 17.1222 21.322C17.1222 23.002 18.2852 24.1004 19.8359 24.1004C21.3866 24.1004 22.5496 23.002 22.5496 21.322Z" fill="#0D0B23">
    </path>
    <path d="M33.2104 24.2942C34.115 24.2942 34.9549 23.9065 35.4072 23.4543L38.1209 25.0049C37.0225 26.5556 35.3426 27.331 33.1458 27.331C29.2691 27.331 26.8784 24.7465 26.8784 21.3221C26.8784 17.9622 29.3337 15.3131 32.9519 15.3131C36.2472 15.3131 38.7024 17.8976 38.7024 21.3221C38.7024 21.7743 38.6378 22.2266 38.5732 22.6789H30.4967C30.949 23.8419 31.9828 24.2942 33.2104 24.2942ZM35.3426 20.159C34.9549 18.8668 33.9857 18.3499 32.9519 18.3499C31.6597 18.3499 30.8197 18.996 30.4967 20.159H35.3426Z" fill="#0D0B23">
    </path>
    <path d="M46.0683 24.2942C46.9729 24.2942 47.8128 23.9065 48.2651 23.4543L50.9788 25.0049C49.8804 26.5556 48.2005 27.331 46.0037 27.331C42.127 27.331 39.7363 24.7465 39.7363 21.3221C39.7363 17.9622 42.1916 15.3131 45.8099 15.3131C49.1051 15.3131 51.5603 17.8976 51.5603 21.3221C51.5603 21.7743 51.4957 22.2266 51.4311 22.6789H43.3546C43.7423 23.8419 44.8407 24.2942 46.0683 24.2942ZM48.1359 20.159C47.7482 18.8668 46.779 18.3499 45.7452 18.3499C44.453 18.3499 43.613 18.996 43.29 20.159H48.1359Z" fill="#0D0B23">
    </path>
    <path d="M52.4648 21.3221C52.4648 17.9622 55.0493 15.3131 58.4738 15.3131C60.6706 15.3131 62.6089 16.4762 63.5781 18.2207L60.606 19.9652C60.2183 19.1899 59.3783 18.673 58.4091 18.673C56.9231 18.673 55.8247 19.7714 55.8247 21.3221C55.8247 22.8727 56.9231 23.9711 58.4091 23.9711C59.3783 23.9711 60.2183 23.5189 60.606 22.6789L63.5781 24.3588C62.6089 26.1033 60.6706 27.2664 58.4738 27.2664C55.0493 27.331 52.4648 24.6819 52.4648 21.3221Z" fill="#0D0B23">
    </path>
    <path d="M75.7252 20.0298V27.0079H72.3008V20.5467C72.3008 19.1252 71.3962 18.4791 70.2978 18.4791C69.0702 18.4791 68.1656 19.1899 68.1656 20.8052V27.0079H64.7412V11.1134H68.1656V16.7346C68.7472 15.8946 69.9102 15.3778 71.3962 15.3778C73.7869 15.3131 75.7252 16.9284 75.7252 20.0298Z" fill="#0D0B23">
    </path>
    <path d="M92.395 15.6361V27.0078H88.9706V25.9094C88.1952 26.7494 87.0968 27.2663 85.6108 27.2663C82.6386 27.2663 80.1833 24.6818 80.1833 21.2574C80.1833 17.8976 82.6386 15.2485 85.6108 15.2485C87.1614 15.2485 88.2598 15.7654 88.9706 16.6053V15.5069H92.395V15.6361ZM88.9706 21.322C88.9706 19.6421 87.8076 18.5437 86.2569 18.5437C84.7062 18.5437 83.5432 19.6421 83.5432 21.322C83.5432 23.0019 84.7062 24.1003 86.2569 24.1003C87.8722 24.1003 88.9706 23.0019 88.9706 21.322Z" fill="#0D0B23">
    </path>
    <path d="M105.253 20.0298V27.0079H101.828V20.5467C101.828 19.1253 100.924 18.4792 99.8255 18.4792C98.5979 18.4792 97.6933 19.1899 97.6933 20.8052V27.0079H94.3335V15.6362H97.7579V16.7346C98.3394 15.8947 99.5025 15.3778 100.989 15.3778C103.315 15.3132 105.253 16.9285 105.253 20.0298Z" fill="#0D0B23">
    </path>
    <path d="M118.951 11.1134V27.0079H115.526V25.9095C114.751 26.7495 113.653 27.2664 112.166 27.2664C109.194 27.2664 106.739 24.6819 106.739 21.2575C106.739 17.8976 109.194 15.2486 112.166 15.2486C113.717 15.2486 114.816 15.7654 115.526 16.6054V10.9842H118.951V11.1134ZM115.526 21.3221C115.526 19.6422 114.363 18.5438 112.813 18.5438C111.262 18.5438 110.099 19.6422 110.099 21.3221C110.099 23.002 111.262 24.1004 112.813 24.1004C114.428 24.1004 115.526 23.002 115.526 21.3221Z" fill="#0D0B23">
    </path>
    <path d="M10.2087 46.1977V49.6868H0.904541V33.7922H4.52281V46.1977H10.2087Z" fill="#0D0B23">
    </path>
    <path d="M23.0664 38.3797V49.7514H19.642V48.653C18.8666 49.4929 17.7682 50.0098 16.2821 50.0098C13.31 50.0098 10.8547 47.4254 10.8547 44.0009C10.8547 40.6411 13.31 37.992 16.2821 37.992C17.8328 37.992 18.9312 38.5089 19.642 39.3489V38.2504H23.0664V38.3797ZM19.642 44.0009C19.642 42.321 18.4789 41.2226 16.9283 41.2226C15.3776 41.2226 14.2146 42.321 14.2146 44.0009C14.2146 45.6808 15.3776 46.7792 16.9283 46.7792C18.4789 46.7792 19.642 45.7454 19.642 44.0009Z" fill="#0D0B23">
    </path>
    <path d="M35.7951 42.7086V49.6867H32.3706V43.2255C32.3706 41.804 31.4661 41.1579 30.3677 41.1579C29.14 41.1579 28.2355 41.8686 28.2355 43.4839V49.6867H24.811V38.315H28.2355V39.4134C28.817 38.5734 29.98 38.0565 31.4661 38.0565C33.7921 38.0565 35.7951 39.6718 35.7951 42.7086Z" fill="#0D0B23">
    </path>
    <path d="M49.0405 38.3796V49.1698C49.0405 52.9819 46.0684 54.5972 43.0316 54.5972C40.641 54.5972 38.7026 53.6926 37.6688 51.8189L40.5764 50.139C41.0286 50.9143 41.6748 51.5604 43.1608 51.5604C44.7761 51.5604 45.7453 50.7205 45.7453 49.1052V48.0714C44.97 48.9759 43.9362 49.5574 42.4501 49.5574C39.2195 49.5574 36.8289 46.9084 36.8289 43.807C36.8289 40.7056 39.2195 38.0565 42.4501 38.0565C43.9362 38.0565 45.0346 38.5734 45.7453 39.5426V38.3796H49.0405ZM45.7453 43.807C45.7453 42.2563 44.5823 41.1579 42.967 41.1579C41.3517 41.1579 40.1887 42.2563 40.1887 43.807C40.1887 45.3577 41.3517 46.4561 42.967 46.4561C44.5823 46.4561 45.7453 45.3577 45.7453 43.807Z" fill="#0D0B23">
    </path>
    <path d="M61.7043 38.3797V49.7514H58.2799V48.653C57.6984 49.4929 56.5354 50.0098 55.0493 50.0098C52.7233 50.0098 50.7849 48.3945 50.7849 45.2932V38.3151H54.2093V44.7763C54.2093 46.1977 55.1139 46.8438 56.2123 46.8438C57.4399 46.8438 58.3445 46.1331 58.3445 44.5178V38.3151H61.7043V38.3797Z" fill="#0D0B23">
    </path>
    <path d="M75.2082 38.3797V49.7514H71.7838V48.653C71.0085 49.4929 69.9101 50.0098 68.424 50.0098C65.4518 50.0098 62.9966 47.4254 62.9966 44.0009C62.9966 40.6411 65.4518 37.992 68.424 37.992C69.9747 37.992 71.0731 38.5089 71.7838 39.3489V38.2504H75.2082V38.3797ZM71.7838 44.0009C71.7838 42.321 70.6208 41.2226 69.0701 41.2226C67.5194 41.2226 66.3564 42.321 66.3564 44.0009C66.3564 45.6808 67.5194 46.7792 69.0701 46.7792C70.6208 46.7792 71.7838 45.7454 71.7838 44.0009Z" fill="#0D0B23">
    </path>
    <path d="M88.6477 38.3796V49.1698C88.6477 52.9819 85.6755 54.5972 82.6388 54.5972C80.2481 54.5972 78.3098 53.6926 77.276 51.8189L80.1835 50.139C80.6358 50.9143 81.2819 51.5604 82.768 51.5604C84.3833 51.5604 85.3525 50.7205 85.3525 49.1052V48.0714C84.5771 48.9759 83.5434 49.5574 82.0573 49.5574C78.8267 49.5574 76.436 46.9084 76.436 43.807C76.436 40.7056 78.8267 38.0565 82.0573 38.0565C83.5434 38.0565 84.6418 38.5734 85.3525 39.5426V38.3796H88.6477ZM85.3525 43.807C85.3525 42.2563 84.1895 41.1579 82.5742 41.1579C80.9589 41.1579 79.7959 42.2563 79.7959 43.807C79.7959 45.3577 80.9589 46.4561 82.5742 46.4561C84.1895 46.4561 85.3525 45.3577 85.3525 43.807Z" fill="#0D0B23">
    </path>
    <path d="M96.2719 46.9731C97.1765 46.9731 98.0164 46.5854 98.4687 46.1331L101.182 47.6838C100.084 49.2345 98.4041 50.0098 96.2073 50.0098C92.3306 50.0098 89.9399 47.4254 89.9399 44.0009C89.9399 40.6411 92.3952 37.992 96.0135 37.992C99.3087 37.992 101.764 40.5765 101.764 44.0009C101.764 44.4532 101.699 44.9055 101.635 45.3578H93.5582C93.9459 46.5854 95.0443 46.9731 96.2719 46.9731ZM98.3395 42.8379C97.9518 41.5457 96.9827 41.0288 95.9489 41.0288C94.6566 41.0288 93.8167 41.6749 93.4936 42.8379H98.3395Z" fill="#0D0B23">
    </path>
    <path d="M106.093 44.7762V34.3737H109.582V44.4531C109.582 45.6162 110.099 46.5853 111.972 46.5853C113.846 46.5853 114.363 45.6162 114.363 44.4531V34.3737H117.852V44.7762C117.852 48.0714 115.332 50.0098 111.972 50.0098C108.613 50.0098 106.093 48.0714 106.093 44.7762Z" fill="#0D0B23">
    </path>
    <path d="M128.578 49.6867L123.667 42.5794V49.6867H120.178V34.3737H123.667V41.0287L128.384 34.3737H132.39L127.221 41.8687L132.584 49.7513H128.578V49.6867Z" fill="#0D0B23">
    </path>
    <path d="M177.618 26.4909L183.304 20.0297L174.905 17.1222C174.646 17.0576 174.452 16.7991 174.388 16.5407L171.545 2.58447C171.222 0.839947 169.413 -0.258457 167.668 0.193827L133.876 9.62718C132.455 10.0149 131.615 11.4363 131.873 12.9224L139.174 47.3606C139.562 49.0405 141.242 50.1389 142.922 49.7512L175.615 42.1916C177.683 41.7393 178.975 39.7364 178.523 37.6688L177.748 33.7274L177.425 32.629L177.295 31.7245L176.778 29.2692C176.714 28.2354 176.972 27.2663 177.618 26.4909Z" fill="#28D2D5">
    </path>
    <path d="M166.957 19.9004C168.637 19.7065 169.865 18.0912 169.671 16.3467C169.477 14.5376 167.991 13.2453 166.311 13.4392C164.631 13.633 163.404 15.2483 163.598 16.9928C163.727 18.7373 165.277 20.0296 166.957 19.9004Z" fill="#0D0B23">
    </path>
    <path d="M170.576 31.4013C172.126 32.952 174.129 33.7919 176.391 33.7919C176.843 33.7919 177.36 33.7273 177.812 33.6627L177.425 31.5951C175.357 31.9182 173.483 31.3367 172.062 29.9152L170.576 31.4013Z" fill="#0D0B23">
    </path>
    <path d="M6.78427 72.6887C4.84591 72.6887 3.29522 72.0426 2.0676 70.8149C0.839969 69.5227 0.193848 67.972 0.193848 66.0983C0.193848 64.2245 0.839969 62.6738 2.0676 61.4462C3.29522 60.154 4.91052 59.5725 6.78427 59.5725C7.94729 59.5725 8.98108 59.8309 9.95026 60.4124C10.9194 60.9293 11.6948 61.7047 12.2117 62.6092L10.4025 63.643C10.0795 62.9969 9.56259 62.5446 8.91647 62.1569C8.27035 61.7693 7.55962 61.5754 6.71966 61.5754C5.36281 61.5754 4.2644 62.0277 3.42445 62.8677C2.58449 63.7076 2.19682 64.806 2.19682 66.0983C2.19682 67.4551 2.58449 68.4889 3.42445 69.3289C4.2644 70.1688 5.36281 70.6211 6.71966 70.6211C7.495 70.6211 8.27035 70.4273 8.91647 70.0396C9.56259 69.6519 10.0795 69.1996 10.4025 68.5535L12.2117 69.5873C11.6948 70.4919 10.9194 71.2672 9.95026 71.7841C8.98108 72.3656 7.94729 72.6887 6.78427 72.6887Z" fill="#0D0B23">
    </path>
    <path d="M18.2206 63.126C19.2544 63.126 20.0943 63.4491 20.7404 64.1598C21.3866 64.8059 21.7096 65.7105 21.7096 66.8735V72.4301H19.7713V67.0673C19.7713 66.4212 19.5774 65.8397 19.2544 65.5166C18.9313 65.1936 18.4144 64.9997 17.7683 64.9997C17.0576 64.9997 16.4761 65.1936 16.0884 65.6459C15.7007 66.0981 15.4423 66.7443 15.4423 67.5842V72.4301H13.5039V59.7662H15.4423V64.5475C16.0238 63.5783 16.993 63.126 18.2206 63.126Z" fill="#0D0B23">
    </path>
    <path d="M30.8845 64.6767V63.3845H32.8228V72.4302H30.8845V71.1379C30.1737 72.1717 29.0753 72.6886 27.7185 72.6886C26.4909 72.6886 25.3924 72.2363 24.5525 71.3318C23.6479 70.4272 23.2603 69.2642 23.2603 67.9719C23.2603 66.6151 23.7125 65.5167 24.5525 64.6121C25.4571 63.7076 26.4909 63.2553 27.7185 63.2553C29.0753 63.126 30.1091 63.6429 30.8845 64.6767ZM25.974 69.9749C26.4909 70.4918 27.2016 70.8149 28.0415 70.8149C28.8815 70.8149 29.5276 70.5564 30.1091 69.9749C30.626 69.3934 30.9491 68.7473 30.9491 67.9073C30.9491 67.0674 30.6906 66.3566 30.1091 65.8397C29.5922 65.2582 28.8815 64.9998 28.0415 64.9998C27.2016 64.9998 26.5555 65.2582 25.974 65.8397C25.4571 66.3566 25.134 67.0674 25.134 67.9073C25.134 68.7473 25.3924 69.3934 25.974 69.9749Z" fill="#0D0B23">
    </path>
    <path d="M39.6718 63.1261C40.7055 63.1261 41.5455 63.4492 42.1916 64.1599C42.8377 64.806 43.1608 65.7106 43.1608 66.8736V72.4302H41.2224V67.0674C41.2224 66.4213 41.0286 65.8398 40.7055 65.5168C40.3179 65.1291 39.8656 64.9999 39.2195 64.9999C38.5087 64.9999 37.9272 65.1937 37.5396 65.646C37.1519 66.0983 36.8934 66.7444 36.8934 67.5843V72.4302H34.9551V63.3846H36.8934V64.5476C37.4749 63.5784 38.4441 63.1261 39.6718 63.1261Z" fill="#0D0B23">
    </path>
    <path d="M52.3356 64.7413V63.3844H54.274V72.0424C54.274 73.3993 53.8217 74.4977 52.9172 75.2084C52.0126 75.9191 50.9142 76.3068 49.6219 76.3068C47.5544 76.3068 46.1329 75.5961 45.3575 74.11L47.0375 73.1408C47.4897 74.0454 48.3943 74.5623 49.6866 74.5623C50.5265 74.5623 51.1726 74.3685 51.6895 73.9162C52.1418 73.4639 52.4003 72.8824 52.4003 72.107V71.0086C51.6895 72.0424 50.5911 72.5593 49.2343 72.5593C47.942 72.5593 46.9082 72.107 46.0037 71.2025C45.0991 70.2979 44.7114 69.1995 44.7114 67.9073C44.7114 66.615 45.1637 65.5166 46.0037 64.6121C46.9082 63.7075 47.942 63.2552 49.2343 63.2552C50.5911 63.126 51.6249 63.6429 52.3356 64.7413ZM47.4251 69.8456C48.0066 70.3625 48.6528 70.6856 49.4927 70.6856C50.3327 70.6856 50.9788 70.4271 51.5603 69.8456C52.1418 69.3287 52.4003 68.618 52.4003 67.8427C52.4003 67.0027 52.1418 66.3566 51.5603 65.8397C51.0434 65.3228 50.3327 64.9997 49.4927 64.9997C48.6528 64.9997 48.0066 65.2582 47.4251 65.8397C46.9082 66.3566 46.5852 67.0673 46.5852 67.8427C46.5852 68.618 46.8436 69.3287 47.4251 69.8456Z" fill="#0D0B23">
    </path>
    <path d="M58.2154 61.64C57.957 61.8984 57.6986 62.0276 57.3755 62.0276C57.0524 62.0276 56.7294 61.8984 56.4709 61.64C56.2125 61.3815 56.0833 61.0585 56.0833 60.7354C56.0833 60.4123 56.2125 60.0893 56.4709 59.8954C56.7294 59.637 56.9878 59.5078 57.3755 59.5078C57.6986 59.5078 58.0216 59.637 58.2801 59.8954C58.5385 60.1539 58.6677 60.4123 58.6677 60.7354C58.6031 61.1231 58.4739 61.3815 58.2154 61.64ZM58.3447 72.4302H56.4063V63.3845H58.3447V72.4302Z" fill="#0D0B23">
    </path>
    <path d="M65.1935 63.1261C66.2273 63.1261 67.0672 63.4492 67.7133 64.1599C68.3595 64.806 68.6825 65.7106 68.6825 66.8736V72.4302H66.7442V67.0674C66.7442 66.4213 66.5503 65.8398 66.2273 65.5168C65.9042 65.1937 65.3873 64.9999 64.7412 64.9999C64.0305 64.9999 63.449 65.1937 63.0613 65.646C62.6736 66.0983 62.4152 66.7444 62.4152 67.5843V72.4302H60.4768V63.3846H62.4152V64.5476C62.9967 63.5784 63.9012 63.1261 65.1935 63.1261Z" fill="#0D0B23">
    </path>
    <path d="M77.8574 64.7413V63.3844H79.7957V72.0424C79.7957 73.3993 79.3434 74.4977 78.4389 75.2084C77.5343 75.9191 76.4359 76.3068 75.1437 76.3068C73.0761 76.3068 71.6546 75.5961 70.8793 74.11L72.5592 73.1408C73.0115 74.0454 73.916 74.5623 75.2083 74.5623C76.0482 74.5623 76.6944 74.3685 77.2113 73.9162C77.6635 73.4639 77.922 72.8824 77.922 72.107V71.0086C77.2113 72.0424 76.1128 72.5593 74.756 72.5593C73.4638 72.5593 72.43 72.107 71.5254 71.2025C70.6208 70.2979 70.2332 69.1995 70.2332 67.9073C70.2332 66.615 70.6854 65.5166 71.5254 64.6121C72.43 63.7075 73.4638 63.2552 74.756 63.2552C76.0482 63.126 77.082 63.6429 77.8574 64.7413ZM72.8822 69.8456C73.4638 70.3625 74.1099 70.6856 74.9498 70.6856C75.7898 70.6856 76.4359 70.4271 77.0174 69.8456C77.5989 69.3287 77.8574 68.618 77.8574 67.8427C77.8574 67.0027 77.5989 66.3566 77.0174 65.8397C76.5005 65.3228 75.7898 64.9997 74.9498 64.9997C74.1099 64.9997 73.4638 65.2582 72.8822 65.8397C72.3654 66.3566 72.0423 67.0673 72.0423 67.8427C72.1069 68.618 72.3654 69.3287 72.8822 69.8456Z" fill="#0D0B23">
    </path>
    <path d="M89.2937 69.9749L91.6198 63.3845H93.6874L90.1983 72.7532C89.3584 75.0793 87.8723 76.1777 85.8047 76.1131V74.3039C86.3862 74.3685 86.9031 74.2393 87.2908 73.9162C87.6784 73.6578 88.0015 73.1409 88.2599 72.4948L88.3246 72.3009L84.5125 63.3845H86.6446L89.2937 69.9749Z" fill="#0D0B23">
    </path>
    <path d="M98.6626 72.6887C97.3058 72.6887 96.2074 72.2364 95.3028 71.3318C94.3982 70.4272 93.8813 69.2642 93.8813 67.972C93.8813 66.6151 94.3336 65.5167 95.3028 64.6122C96.2074 63.7076 97.3704 63.2553 98.6626 63.2553C100.019 63.2553 101.118 63.7076 102.022 64.6122C102.927 65.5167 103.444 66.6797 103.444 67.972C103.444 69.3288 102.992 70.4272 102.022 71.3318C101.182 72.2364 100.019 72.6887 98.6626 72.6887ZM95.8843 67.9074C95.8843 68.7473 96.1428 69.3935 96.7243 69.975C97.2412 70.4919 97.9519 70.8149 98.7272 70.8149C99.5026 70.8149 100.213 70.5565 100.73 69.975C101.247 69.4581 101.57 68.7473 101.57 67.9074C101.57 67.0674 101.312 66.4213 100.73 65.8398C100.213 65.3229 99.5026 64.9998 98.7272 64.9998C97.9519 64.9998 97.2412 65.2583 96.7243 65.8398C96.1428 66.4213 95.8843 67.0674 95.8843 67.9074Z" fill="#0D0B23">
    </path>
    <path d="M111.197 68.2304V63.3845H113.136V72.4302H111.197V71.2672C110.616 72.1717 109.647 72.6886 108.419 72.6886C107.385 72.6886 106.545 72.3656 105.899 71.6548C105.253 71.0087 104.93 70.1041 104.93 68.9411V63.3845H106.868V68.7473C106.868 69.3934 107.062 69.9749 107.385 70.298C107.773 70.6857 108.225 70.8149 108.871 70.8149C109.582 70.8149 110.164 70.621 110.551 70.1688C111.003 69.7165 111.197 69.0704 111.197 68.2304Z" fill="#0D0B23">
    </path>
    <path d="M120.049 63.1261C121.083 63.1261 121.923 63.4492 122.569 64.1599C123.215 64.806 123.538 65.7106 123.538 66.8736V72.4302H121.6V67.0674C121.6 66.4213 121.406 65.8398 121.083 65.5168C120.76 65.1937 120.243 64.9999 119.597 64.9999C118.886 64.9999 118.305 65.1937 117.917 65.646C117.529 66.0983 117.271 66.7444 117.271 67.5843V72.4302H115.333V63.3846H117.271V64.5476C117.852 63.5784 118.757 63.1261 120.049 63.1261Z" fill="#0D0B23">
    </path>
    <path d="M132.713 64.7413V63.3844H134.651V72.0424C134.651 73.3993 134.199 74.4977 133.295 75.2084C132.39 75.9191 131.292 76.3068 129.999 76.3068C127.932 76.3068 126.51 75.5961 125.735 74.11L127.415 73.1408C127.867 74.0454 128.772 74.5623 130.064 74.5623C130.904 74.5623 131.55 74.3685 132.067 73.9162C132.519 73.4639 132.778 72.8824 132.778 72.107V71.0086C132.067 72.0424 130.969 72.5593 129.612 72.5593C128.319 72.5593 127.286 72.107 126.381 71.2025C125.477 70.2979 125.089 69.1995 125.089 67.9073C125.089 66.615 125.541 65.5166 126.381 64.6121C127.286 63.7075 128.319 63.2552 129.612 63.2552C130.904 63.126 131.938 63.6429 132.713 64.7413ZM127.738 69.8456C128.319 70.3625 128.966 70.6856 129.806 70.6856C130.645 70.6856 131.292 70.4271 131.873 69.8456C132.455 69.3287 132.713 68.618 132.713 67.8427C132.713 67.0027 132.455 66.3566 131.873 65.8397C131.356 65.3228 130.645 64.9997 129.806 64.9997C128.966 64.9997 128.319 65.2582 127.738 65.8397C127.221 66.3566 126.898 67.0673 126.898 67.8427C126.963 68.618 127.221 69.3287 127.738 69.8456Z" fill="#0D0B23">
    </path>
    <path d="M142.34 72.4302H140.402V59.1847H142.34V72.4302Z" fill="#0D0B23">
    </path>
    <path d="M146.282 61.64C146.023 61.8984 145.765 62.0276 145.442 62.0276C145.119 62.0276 144.796 61.8984 144.537 61.64C144.279 61.3815 144.149 61.0585 144.149 60.7354C144.149 60.4123 144.279 60.0893 144.537 59.8954C144.796 59.637 145.054 59.5078 145.442 59.5078C145.765 59.5078 146.088 59.637 146.346 59.8954C146.605 60.1539 146.734 60.4123 146.734 60.7354C146.669 61.1231 146.54 61.3815 146.282 61.64ZM146.346 72.4302H144.408V63.3845H146.346V72.4302Z" fill="#0D0B23">
    </path>
    <path d="M152.097 70.2333L154.616 63.3198H156.749L153.195 72.3655H150.934L147.38 63.3198H149.512L152.097 70.2333Z" fill="#0D0B23">
    </path>
    <path d="M166.182 68.7473H158.946C159.075 69.3934 159.398 69.975 159.915 70.298C160.432 70.6857 161.078 70.8795 161.853 70.8795C162.887 70.8795 163.662 70.4919 164.179 69.7811L165.794 70.7503C164.89 72.0425 163.598 72.7533 161.853 72.7533C160.367 72.7533 159.204 72.301 158.299 71.3964C157.395 70.4919 156.943 69.3288 156.943 67.972C156.943 66.6151 157.395 65.5167 158.299 64.6122C159.204 63.7076 160.302 63.2553 161.724 63.2553C163.016 63.2553 164.115 63.7076 164.955 64.6768C165.794 65.5813 166.247 66.7444 166.247 68.0366C166.247 68.1658 166.247 68.4243 166.182 68.7473ZM158.946 67.132H164.244C164.115 66.4213 163.791 65.8398 163.339 65.4521C162.887 65.0645 162.305 64.8706 161.659 64.8706C160.949 64.8706 160.302 65.0645 159.85 65.4521C159.398 65.9044 159.075 66.4213 158.946 67.132Z" fill="#0D0B23">
    </path>
    <path d="M169.477 65.9044C169.477 66.1629 169.606 66.4213 169.93 66.6151C170.188 66.809 170.64 66.9382 171.222 67.132C171.674 67.1966 171.997 67.3259 172.32 67.4551C172.643 67.5843 172.966 67.7135 173.289 67.9074C173.612 68.1012 173.935 68.4243 174.065 68.7473C174.259 69.0704 174.323 69.5227 174.323 69.975C174.323 70.8149 174 71.5256 173.289 72.0425C172.643 72.5594 171.803 72.8179 170.769 72.8179C169.865 72.8179 169.09 72.6241 168.443 72.2364C167.797 71.8487 167.345 71.3318 167.022 70.6857L168.702 69.7165C169.025 70.5565 169.671 71.0087 170.705 71.0087C171.739 71.0087 172.256 70.6857 172.256 69.975C172.256 69.4581 171.674 69.0704 170.511 68.8119C170.059 68.6827 169.736 68.6181 169.413 68.4889C169.09 68.3597 168.767 68.2304 168.443 68.0366C168.056 67.8428 167.797 67.5843 167.603 67.1966C167.41 66.8736 167.345 66.4859 167.345 66.0336C167.345 65.1937 167.668 64.5476 168.314 64.0307C168.96 63.5138 169.736 63.2553 170.705 63.2553C171.48 63.2553 172.126 63.4491 172.708 63.7722C173.289 64.0953 173.742 64.5476 174.065 65.1291L172.385 66.0336C172.062 65.3229 171.545 64.9998 170.705 64.9998C170.317 64.9998 169.994 65.0644 169.736 65.2583C169.606 65.3229 169.477 65.5813 169.477 65.9044Z" fill="#0D0B23">
    </path>
    <path d="M177.101 69.9104C177.489 69.9104 177.812 70.0396 178.071 70.2981C178.329 70.5565 178.458 70.8796 178.458 71.2672C178.458 71.6549 178.329 71.978 178.071 72.2364C177.812 72.4949 177.489 72.6241 177.101 72.6241C176.714 72.6241 176.391 72.4949 176.132 72.2364C175.874 71.978 175.745 71.6549 175.745 71.2672C175.745 70.8796 175.874 70.5565 176.132 70.2981C176.391 70.0396 176.714 69.9104 177.101 69.9104Z" fill="#0D0B23">
    </path>
  </g>
  <defs>
    <clipPath id="clip0_3448_11221">
      <rect width="183.498" height="76.8883" fill="white">
      </rect>
    </clipPath>
  </defs>
</svg>